normalP10_grf.mot
version=1
nRows=27
nColumns=19
inDegrees=yes
endheader
time	1_ground_force_vx	1_ground_force_vy	1_ground_force_vz	1_ground_force_px	1_ground_force_py	1_ground_force_pz	1_ground_torque_x	1_ground_torque_y	1_ground_torque_z	2_ground_force_vx	2_ground_force_vy	2_ground_force_vz	2_ground_force_px	2_ground_force_py	2_ground_force_pz	2_ground_torque_x	2_ground_torque_y	2_ground_torque_z
            1.815000	          193.884635	          770.185523	           28.416609	            0.245984	            0.003019	           -0.316956	           -0.397622	           -1.579511	           -0.058277	          -44.222228	          314.662675	           48.637673	            0.863689	            0.000968	           -0.217101	           -0.003193	            0.022718	            0.003512
            1.816000	          193.941018	          765.323003	           27.458851	            0.245993	            0.003018	           -0.316839	           -0.400097	           -1.578849	           -0.056647	          -49.249105	          321.950270	           49.274057	            0.865653	            0.000973	           -0.219637	            0.014432	           -0.094348	           -0.014440
            1.817000	          193.903511	          761.895666	           26.604955	            0.246214	            0.003017	           -0.316570	           -0.417851	           -1.641841	           -0.057332	          -53.539088	          320.358513	           49.253625	            0.867390	            0.000966	           -0.218961	            0.012303	           -0.073616	           -0.011318
            1.818000	          194.328585	          757.668936	           25.671931	            0.246212	            0.003017	           -0.316635	           -0.401896	           -1.566955	           -0.053093	          -57.794350	          310.782383	           47.571089	            0.867018	            0.000962	           -0.217752	            0.012644	           -0.067990	           -0.010407
            1.819000	          194.556854	          750.174619	           24.866235	            0.245897	            0.003018	           -0.316626	           -0.396930	           -1.530488	           -0.050731	          -62.128412	          309.516752	           46.691236	            0.865801	            0.000961	           -0.216503	            0.021217	           -0.105699	           -0.015945
            1.820000	          194.846874	          740.843060	           24.093051	            0.245749	            0.003019	           -0.316839	           -0.383181	           -1.456922	           -0.047381	          -66.020675	          324.396791	           45.030159	            0.868654	            0.000956	           -0.217224	            0.032132	           -0.157883	           -0.021916
            1.821000	          195.190065	          735.102082	           23.331593	            0.245721	            0.003019	           -0.316593	           -0.386927	           -1.457198	           -0.046250	          -70.388086	          342.078883	           42.718482	            0.870979	            0.000953	           -0.218112	            0.040307	           -0.195886	           -0.024462
            1.822000	          195.358224	          729.678892	           22.486582	            0.246001	            0.003017	           -0.316368	           -0.396034	           -1.479219	           -0.045585	          -74.925712	          347.529565	           40.687728	            0.871037	            0.000949	           -0.216871	            0.046450	           -0.215449	           -0.025224
            1.823000	          195.610583	          722.503877	           21.421382	            0.245694	            0.003019	           -0.316546	           -0.382703	           -1.413546	           -0.041910	          -79.172043	          349.704417	           37.859197	            0.870581	            0.000942	           -0.214929	            0.043984	           -0.194279	           -0.021033
            1.824000	          195.646524	          714.847122	           20.959674	            0.245694	            0.003019	           -0.316590	           -0.371348	           -1.356820	           -0.039783	          -83.070082	          359.154277	           35.298743	            0.871043	            0.000941	           -0.214892	            0.062111	           -0.268536	           -0.026393
            1.825000	          195.767401	          707.190578	           20.421573	            0.245812	            0.003018	           -0.316511	           -0.373635	           -1.349721	           -0.038976	          -87.624602	          372.839046	           33.131023	            0.872924	            0.000938	           -0.215307	            0.082431	           -0.350740	           -0.031167
            1.826000	          195.921871	          700.253025	           19.564321	            0.245660	            0.003019	           -0.316598	           -0.356622	           -1.274618	           -0.035611	          -91.744372	          382.687283	           30.632256	            0.873699	            0.000935	           -0.215018	            0.091295	           -0.380815	           -0.030482
            1.827000	          195.838204	          693.155545	           19.020225	            0.245855	            0.003017	           -0.316356	           -0.367767	           -1.301686	           -0.035718	          -95.340166	          381.981664	           28.776465	            0.873803	            0.000931	           -0.214167	            0.104880	           -0.420205	           -0.031656
            1.828000	          195.919473	          685.262982	           18.205617	            0.245565	            0.003019	           -0.316396	           -0.356211	           -1.245910	           -0.033101	          -98.177495	          378.156661	           27.133774	            0.874245	            0.000928	           -0.213618	            0.103216	           -0.397563	           -0.028526
            1.829000	          195.845043	          676.730793	           17.565119	            0.245464	            0.003019	           -0.316309	           -0.348561	           -1.204432	           -0.031262	         -100.316060	          377.687175	           25.520391	            0.874978	            0.000925	           -0.213444	            0.117021	           -0.440579	           -0.029770
            1.830000	          195.457308	          668.198124	           16.978157	            0.245547	            0.003018	           -0.316237	           -0.352303	           -1.204396	           -0.030602	         -101.987807	          380.251961	           24.765567	            0.875959	            0.000925	           -0.213985	            0.141505	           -0.527587	           -0.034361
            1.831000	          195.119245	          660.624472	           16.195252	            0.245520	            0.003018	           -0.316247	           -0.341087	           -1.154833	           -0.028311	         -102.767149	          378.175992	           24.332117	            0.876460	            0.000922	           -0.213669	            0.149691	           -0.550852	           -0.035442
            1.832000	          194.712786	          653.209882	           15.535221	            0.245570	            0.003018	           -0.316250	           -0.335689	           -1.126147	           -0.026783	         -102.952051	          371.783122	           24.006119	            0.876634	            0.000921	           -0.213381	            0.151915	           -0.548599	           -0.035423
            1.833000	          194.072341	          644.681676	           14.557691	            0.245528	            0.003018	           -0.316065	           -0.336306	           -1.117162	           -0.025227	         -102.529810	          366.183879	           24.276371	            0.877327	            0.000917	           -0.212824	            0.144531	           -0.516190	           -0.034221
            1.834000	          193.549935	          635.035893	           13.699162	            0.245258	            0.003019	           -0.316181	           -0.323318	           -1.060804	           -0.022884	         -101.551826	          365.141131	           24.834510	            0.877544	            0.000918	           -0.213189	            0.155881	           -0.560488	           -0.038121
            1.835000	          193.003616	          626.984355	           12.838169	            0.245186	            0.003019	           -0.316047	           -0.323935	           -1.052325	           -0.021547	         -100.101637	          365.854499	           25.438414	            0.878007	            0.000918	           -0.213462	            0.166887	           -0.609944	           -0.042410
            1.836000	          192.273364	          618.935202	           11.969395	            0.245179	            0.003018	           -0.315709	           -0.334953	           -1.078226	           -0.020851	          -98.572013	          365.358641	           27.828721	            0.878908	            0.000913	           -0.212805	            0.186893	           -0.692723	           -0.052763
            1.837000	          191.414312	          611.202787	           11.124568	            0.245336	            0.003017	           -0.315584	           -0.334696	           -1.068714	           -0.019452	          -96.851090	          367.107132	           28.860064	            0.879047	            0.000911	           -0.212417	            0.195007	           -0.739160	           -0.058109
            1.838000	          190.418912	          601.878737	           10.044986	            0.245077	            0.003018	           -0.315662	           -0.320459	           -1.012912	           -0.016905	          -95.255784	          370.537335	           29.659710	            0.879715	            0.000911	           -0.213008	            0.226092	           -0.879480	           -0.070398
            1.839000	          189.384528	          592.392355	            9.309484	            0.245146	            0.003018	           -0.315658	           -0.312599	           -0.977806	           -0.015366	          -93.249646	          375.954740	           31.067472	            0.881074	            0.000903	           -0.211733	            0.206938	           -0.834314	           -0.068945
            1.840000	          188.147062	          583.787012	            8.423657	            0.244908	            0.003018	           -0.315425	           -0.313090	           -0.971462	           -0.014018	          -90.873023	          384.340571	           30.311659	            0.881543	            0.000900	           -0.211339	            0.201587	           -0.852596	           -0.067241
            1.841000	          186.841022	          575.180323	            7.507117	            0.245024	            0.003018	           -0.315363	           -0.314957	           -0.969578	           -0.012655	          -88.824887	          393.840944	           31.036201	            0.882178	            0.000898	           -0.211227	            0.203333	           -0.901561	           -0.071047
